<?xml version="1.0" encoding="utf-8"?>
<!-- Generator: Adobe Illustrator 25.4.1, SVG Export Plug-In . SVG Version: 6.00 Build 0)  -->
<svg version="1.1" id="Layer_1" xmlns="http://www.w3.org/2000/svg" xmlns:xlink="http://www.w3.org/1999/xlink" x="0px" y="0px"
	 viewBox="0 0 988.89 107.35" style="enable-background:new 0 0 988.89 107.35;" xml:space="preserve">
<style type="text/css">
	.st0{fill:#BA6900;}
	.st1{fill:#A4A5A5;}
</style>
<g>
	<path class="st0" d="M0,104.14v-22.5l45.8-53.51H2.69V2.68h84.2v23.05L41.36,77.45h44v26.69H0z"/>
	<path class="st0" d="M100.31,104.14V2.68h77.97v24.9h-47.7v13.79h38.98v24.97h-38.98v37.8H100.31z"/>
	<path class="st0" d="M185.25,73.27l36.66-0.07c0.28,2.74,1.6,4.86,3.96,6.34c2.36,1.49,5.58,2.23,9.67,2.23
		c4.08,0,7.14-0.61,9.16-1.82c2.02-1.21,3.04-3.03,3.04-5.46c0-2.15-0.88-3.88-2.64-5.18c-1.76-1.31-4.47-2.25-8.13-2.85
		l-22.61-3.64c-9.37-1.46-16.42-4.73-21.16-9.81c-4.74-5.08-7.1-11.87-7.1-20.38c0-11.34,3.58-19.62,10.75-24.83
		C204.01,2.61,215.43,0,231.1,0c16.27,0,28.37,2.61,36.29,7.82c7.92,5.21,12.2,13.33,12.84,24.35h-35.18
		c-0.39-3.2-1.87-5.61-4.44-7.24c-2.57-1.62-6.18-2.44-10.83-2.44c-3.38,0-6.04,0.61-7.98,1.82c-1.94,1.21-2.91,2.85-2.91,4.91
		c0,1.92,0.75,3.38,2.25,4.39c1.5,1.01,4.6,1.94,9.32,2.81l27.57,5.08c8.63,1.6,15.07,4.86,19.33,9.77
		c4.26,4.92,6.39,11.54,6.39,19.86c0,12.44-4.26,21.56-12.78,27.37c-8.52,5.81-21.96,8.71-40.3,8.71c-14.58,0-25.77-2.93-33.57-8.78
		C189.3,92.59,185.35,84.2,185.25,73.27z"/>
	<g>
		<path class="st1" d="M361.04,2.68c10.92,0,18.64,1.96,23.16,5.87s6.79,10.39,6.79,19.45c0,4.98-0.88,9.35-2.64,13.1
			s-4.35,6.79-7.76,9.12c4.51,1.87,7.91,4.93,10.19,9.16c2.29,4.23,3.43,9.5,3.43,15.81c0,9.65-2.43,16.89-7.29,21.71
			c-4.86,4.83-12.17,7.24-21.92,7.24h-66.82V2.68H361.04z M328.45,26.41v14.34h20.34c4.4,0,7.25-0.51,8.56-1.54
			c1.3-1.03,1.95-2.89,1.95-5.59c0-2.74-0.6-4.63-1.8-5.66c-1.2-1.03-4.1-1.54-8.72-1.54H328.45z M328.45,78.82h21.45
			c4.93,0,8.13-0.59,9.59-1.78s2.19-3.34,2.19-6.45c0-3.2-0.76-5.41-2.27-6.62c-1.51-1.21-4.68-1.82-9.51-1.82h-21.45V78.82z"/>
	</g>
	<g>
		<path class="st1" d="M403.48,69.07c0-12.21,3.06-21.43,9.17-27.65s15.18-9.33,27.19-9.33c12.01,0,21.07,3.11,27.19,9.33
			s9.17,15.43,9.17,27.65c0,12.18-3.06,21.38-9.17,27.6s-15.18,9.33-27.19,9.33c-12.01,0-21.07-3.11-27.19-9.33
			S403.48,81.25,403.48,69.07z M425.99,69.07c0,6.11,1.19,10.77,3.56,14c2.37,3.23,5.8,4.84,10.29,4.84c4.48,0,7.91-1.61,10.29-4.84
			c2.37-3.23,3.56-7.89,3.56-14c0-6.14-1.19-10.84-3.56-14.1c-2.38-3.26-5.81-4.89-10.29-4.89c-4.48,0-7.91,1.63-10.29,4.89
			C427.18,58.23,425.99,62.93,425.99,69.07z"/>
		<path class="st1" d="M439.84,107.13c-12.27,0-21.69-3.25-28-9.67c-6.3-6.41-9.5-15.96-9.5-28.4c0-12.47,3.2-22.04,9.5-28.45
			c6.31-6.41,15.73-9.67,28-9.67c12.27,0,21.69,3.25,28,9.67c6.3,6.41,9.5,15.98,9.5,28.45c0,12.43-3.2,21.99-9.5,28.4
			C461.53,103.88,452.11,107.13,439.84,107.13z M439.84,33.23c-11.64,0-20.51,3.02-26.38,8.99c-5.87,5.97-8.85,15-8.85,26.85
			c0,11.81,2.98,20.83,8.85,26.8c5.86,5.96,14.74,8.98,26.38,8.98c11.64,0,20.51-3.02,26.37-8.98c5.87-5.97,8.85-14.99,8.85-26.8
			c0-11.85-2.98-20.88-8.85-26.85C460.35,36.26,451.48,33.23,439.84,33.23z M439.84,89.05c-4.85,0-8.61-1.79-11.21-5.3
			c-2.51-3.41-3.79-8.35-3.79-14.68c0-6.35,1.27-11.32,3.78-14.77c2.59-3.55,6.36-5.36,11.21-5.36c4.84,0,8.61,1.8,11.21,5.36
			c2.51,3.44,3.78,8.41,3.78,14.77c0,6.32-1.27,11.26-3.78,14.68C448.45,87.26,444.69,89.05,439.84,89.05z M439.84,51.22
			c-4.13,0-7.2,1.44-9.37,4.42c-2.22,3.05-3.35,7.56-3.35,13.43c0,5.83,1.12,10.31,3.34,13.32c2.17,2.95,5.23,4.38,9.37,4.38
			c4.14,0,7.2-1.43,9.37-4.38c2.22-3.01,3.34-7.5,3.34-13.32c0-5.86-1.13-10.38-3.34-13.43C447.04,52.67,443.98,51.22,439.84,51.22z
			"/>
	</g>
	<g>
		<path class="st1" d="M483.26,69.07c0-12.21,3.06-21.43,9.17-27.65c6.11-6.22,15.18-9.33,27.19-9.33c12.01,0,21.07,3.11,27.19,9.33
			c6.12,6.22,9.17,15.43,9.17,27.65c0,12.18-3.06,21.38-9.17,27.6c-6.11,6.22-15.18,9.33-27.19,9.33c-12.01,0-21.07-3.11-27.19-9.33
			C486.31,90.45,483.26,81.25,483.26,69.07z M505.77,69.07c0,6.11,1.19,10.77,3.56,14c2.37,3.23,5.8,4.84,10.29,4.84
			c4.48,0,7.91-1.61,10.29-4.84c2.37-3.23,3.56-7.89,3.56-14c0-6.14-1.19-10.84-3.56-14.1c-2.38-3.26-5.8-4.89-10.29-4.89
			c-4.48,0-7.91,1.63-10.29,4.89C506.95,58.23,505.77,62.93,505.77,69.07z"/>
		<path class="st1" d="M519.62,107.13c-12.27,0-21.69-3.25-28-9.67c-6.3-6.41-9.5-15.96-9.5-28.4c0-12.47,3.2-22.04,9.5-28.45
			c6.31-6.41,15.73-9.67,28-9.67c12.27,0,21.69,3.25,28,9.67c6.3,6.41,9.5,15.98,9.5,28.45c0,12.43-3.2,21.99-9.5,28.4
			C541.31,103.88,531.89,107.13,519.62,107.13z M519.62,33.23c-11.64,0-20.51,3.02-26.38,8.99c-5.87,5.97-8.85,15-8.85,26.85
			c0,11.81,2.98,20.83,8.85,26.8c5.86,5.96,14.74,8.98,26.38,8.98c11.64,0,20.51-3.02,26.37-8.98c5.87-5.97,8.85-14.99,8.85-26.8
			c0-11.85-2.98-20.88-8.85-26.85C540.13,36.26,531.25,33.23,519.62,33.23z M519.62,89.05c-4.85,0-8.61-1.79-11.21-5.3
			c-2.51-3.41-3.78-8.35-3.78-14.68c0-6.35,1.27-11.32,3.78-14.77c2.59-3.55,6.36-5.36,11.21-5.36c4.84,0,8.61,1.8,11.21,5.36
			c2.51,3.44,3.78,8.41,3.78,14.77c0,6.32-1.27,11.26-3.78,14.68C528.23,87.26,524.46,89.05,519.62,89.05z M519.62,51.22
			c-4.13,0-7.2,1.44-9.37,4.42c-2.22,3.05-3.35,7.56-3.35,13.43c0,5.83,1.12,10.31,3.34,13.32c2.17,2.95,5.23,4.38,9.37,4.38
			c4.14,0,7.2-1.43,9.37-4.38c2.22-3.01,3.34-7.5,3.34-13.32c0-5.86-1.13-10.38-3.34-13.43C526.81,52.67,523.75,51.22,519.62,51.22z
			"/>
	</g>
	<g>
		<path class="st1" d="M579.95,104.14v-52.4H560.4v-17.8h60.11v17.8h-19.62v52.4H579.95z"/>
		<path class="st1" d="M602.03,105.28h-23.22v-52.4h-19.55V32.81h62.39v20.08h-19.62V105.28z M581.09,103h18.66V50.6h19.62V35.08
			h-57.84V50.6h19.55V103z"/>
	</g>
	<g>
		<path class="st1" d="M630.71,104.14V2.68h44.9l13.21,61.81l14.26-61.81h44.27v101.46H719.3V24.9l-18.59,79.24h-23.61L658.71,24.9
			v79.24H630.71z"/>
	</g>
	<g>
		<path class="st1" d="M764.3,104.14V29.56h60.84v18.31h-38.59v8.88h31.26v18.41h-31.26v9.78h40.5v19.21H764.3z"/>
		<path class="st1" d="M828.18,105.28h-65.02V28.42h63.12V49h-38.59v6.6h31.26v20.68h-31.26v7.5h40.5V105.28z M765.44,103h60.46
			V86.07h-40.5V74h31.26V57.88h-31.26V46.72h38.59V30.7h-58.56V103z"/>
	</g>
	<g>
		<path class="st1" d="M835.7,104.14V29.56h26.33l22.17,42.96V29.56h21.55v74.58h-24.97l-24.11-43.67v43.67H835.7z"/>
		<path class="st1" d="M906.89,105.28h-26.78l-22.3-40.39v40.39h-23.25V28.42h28.16l20.34,39.41V28.42h23.83V105.28z M881.45,103
			h23.15V30.7h-19.27v46.52l-24-46.52h-24.49V103h18.69V56.05L881.45,103z"/>
	</g>
	<g>
		<path class="st1" d="M942.17,29.56v36.46c0,7.5,0.87,12.7,2.62,15.61c1.75,2.91,4.77,4.36,9.07,4.36c4.3,0,7.31-1.44,9.03-4.34
			s2.58-8.1,2.58-15.63V29.56h22.29v39.18c0,12.94-2.71,22.42-8.13,28.44c-5.42,6.02-14.01,9.03-25.76,9.03
			c-11.68,0-20.25-3.03-25.72-9.08c-5.48-6.05-8.21-15.51-8.21-28.39V29.56H942.17z"/>
		<path class="st1" d="M953.85,107.35c-11.95,0-20.89-3.18-26.57-9.45c-5.64-6.24-8.5-16.05-8.5-29.16V28.42h24.53v37.6
			c0,7.25,0.83,12.31,2.46,15.02c1.54,2.56,4.19,3.81,8.09,3.81c3.9,0,6.53-1.24,8.05-3.78c1.61-2.71,2.42-7.77,2.42-15.05v-37.6
			h24.56v40.32c0,13.17-2.84,23-8.43,29.2C974.84,104.18,965.89,107.35,953.85,107.35z M921.06,30.7v38.04
			c0,12.53,2.66,21.82,7.92,27.63c5.22,5.78,13.59,8.7,24.88,8.7c11.36,0,19.74-2.91,24.92-8.65c5.2-5.78,7.84-15.09,7.84-27.68
			V30.7H966.6v35.32c0,7.81-0.9,13.11-2.74,16.21c-1.93,3.25-5.3,4.89-10.01,4.89c-4.7,0-8.09-1.65-10.04-4.91
			c-1.87-3.12-2.78-8.42-2.78-16.2V30.7H921.06z"/>
	</g>
</g>
</svg>
