<?xml version="1.0" encoding="utf-8"?>
<!-- Generator: Adobe Illustrator 25.4.1, SVG Export Plug-In . SVG Version: 6.00 Build 0)  -->
<svg version="1.1" id="Layer_1" xmlns="http://www.w3.org/2000/svg" xmlns:xlink="http://www.w3.org/1999/xlink" x="0px" y="0px"
	 viewBox="0 0 1466.45 259.84" style="enable-background:new 0 0 1466.45 259.84;" xml:space="preserve">
<style type="text/css">
	.st0{fill:#00B400;}
	.st1{fill:#00B7B9;}
	.st2{fill:#BA6900;}
	.st3{fill:#A4A5A5;}
</style>
<rect y="-0.94" width="1466.45" height="260.78"/>
<path d="M385.97,218.88H63.76c-10,0-18.1-8.1-18.1-18.1V52.02c0-10,8.1-18.1,18.1-18.1h304.11c10,0,18.1,8.1,18.1,18.1V218.88z"/>
<g>
	<path class="st0" d="M390.49,223.4H63.76c-12.47,0-22.62-10.15-22.62-22.62V52.02c0-12.47,10.15-22.62,22.62-22.62h304.11
		c12.47,0,22.62,10.15,22.62,22.62V223.4z M63.76,38.45c-7.48,0-13.57,6.09-13.57,13.57v148.76c0,7.48,6.09,13.57,13.57,13.57
		h317.69V52.02c0-7.48-6.09-13.57-13.57-13.57H63.76z"/>
	<path class="st1" d="M353.53,163.47H78.84c-7.32,0-13.25,5.93-13.25,13.25v0c0,7.32,5.93,13.25,13.25,13.25h287.94v-13.26
		C366.78,169.4,360.85,163.47,353.53,163.47z"/>
	<path class="st1" d="M353.53,112.98H78.84c-7.32,0-13.26,5.93-13.26,13.26v0c0,7.32,5.93,13.26,13.26,13.26h287.95v-13.26
		C366.79,118.91,360.85,112.98,353.53,112.98z"/>
	<path class="st1" d="M78.85,62.48h274.68c7.32,0,13.26,5.93,13.26,13.26v13.26H78.85c-7.32,0-13.26-5.93-13.26-13.26v0
		C65.59,68.42,71.52,62.48,78.85,62.48z"/>
</g>
<g>
	<path class="st2" d="M434.22,176.87v-22.5l45.8-53.51h-43.1V75.4h84.2v23.05l-45.53,51.73h44v26.69H434.22z"/>
	<path class="st2" d="M534.53,176.87V75.4h77.97v24.9h-47.7v13.79h38.98v24.97h-38.98v37.8H534.53z"/>
	<path class="st2" d="M619.46,146l36.66-0.07c0.28,2.74,1.6,4.86,3.96,6.34s5.58,2.23,9.67,2.23c4.08,0,7.14-0.61,9.16-1.82
		c2.02-1.21,3.04-3.03,3.04-5.46c0-2.15-0.88-3.88-2.64-5.18c-1.76-1.31-4.47-2.25-8.13-2.85l-22.61-3.64
		c-9.37-1.46-16.42-4.73-21.16-9.81c-4.74-5.08-7.1-11.87-7.1-20.38c0-11.34,3.58-19.62,10.75-24.83
		c7.17-5.21,18.58-7.82,34.25-7.82c16.27,0,28.37,2.61,36.29,7.82c7.92,5.21,12.2,13.33,12.84,24.35h-35.18
		c-0.39-3.2-1.87-5.61-4.44-7.24c-2.57-1.62-6.18-2.44-10.83-2.44c-3.38,0-6.04,0.61-7.98,1.82c-1.94,1.21-2.91,2.85-2.91,4.91
		c0,1.92,0.75,3.38,2.25,4.39c1.5,1.01,4.6,1.94,9.32,2.81l27.57,5.08c8.63,1.6,15.07,4.86,19.33,9.77
		c4.26,4.92,6.39,11.54,6.39,19.86c0,12.44-4.26,21.56-12.78,27.37c-8.52,5.81-21.96,8.71-40.3,8.71c-14.58,0-25.77-2.93-33.57-8.78
		C623.52,165.32,619.57,156.93,619.46,146z"/>
	<g>
		<path class="st3" d="M795.25,75.4c10.92,0,18.64,1.96,23.16,5.87s6.79,10.39,6.79,19.45c0,4.98-0.88,9.35-2.64,13.1
			c-1.76,3.75-4.35,6.79-7.76,9.12c4.51,1.87,7.91,4.93,10.19,9.16c2.29,4.23,3.43,9.5,3.43,15.81c0,9.65-2.43,16.89-7.29,21.71
			c-4.86,4.83-12.17,7.24-21.92,7.24h-66.82V75.4H795.25z M762.66,99.14v14.34H783c4.4,0,7.25-0.51,8.56-1.54
			c1.3-1.03,1.95-2.89,1.95-5.59c0-2.74-0.6-4.63-1.8-5.66c-1.2-1.03-4.1-1.54-8.72-1.54H762.66z M762.66,151.55h21.45
			c4.93,0,8.13-0.59,9.59-1.78c1.46-1.19,2.19-3.34,2.19-6.45c0-3.2-0.76-5.41-2.27-6.62c-1.51-1.21-4.68-1.82-9.51-1.82h-21.45
			V151.55z"/>
	</g>
	<g>
		<path class="st3" d="M837.7,141.79c0-12.21,3.06-21.43,9.17-27.65c6.12-6.22,15.18-9.33,27.19-9.33c12.01,0,21.07,3.11,27.19,9.33
			c6.11,6.22,9.17,15.43,9.17,27.65c0,12.18-3.06,21.38-9.17,27.6c-6.12,6.22-15.18,9.33-27.19,9.33c-12.01,0-21.07-3.11-27.19-9.33
			C840.75,163.17,837.7,153.98,837.7,141.79z M860.21,141.79c0,6.11,1.19,10.77,3.56,14c2.37,3.23,5.8,4.84,10.29,4.84
			c4.48,0,7.91-1.61,10.29-4.84c2.37-3.23,3.56-7.89,3.56-14c0-6.14-1.19-10.84-3.56-14.1c-2.38-3.26-5.81-4.89-10.29-4.89
			c-4.48,0-7.91,1.63-10.29,4.89C861.39,130.96,860.21,135.66,860.21,141.79z"/>
		<path class="st3" d="M874.06,179.86c-12.27,0-21.69-3.25-28-9.67c-6.3-6.41-9.5-15.96-9.5-28.4c0-12.47,3.2-22.04,9.5-28.45
			c6.31-6.41,15.73-9.67,28-9.67c12.27,0,21.69,3.25,28,9.67c6.3,6.41,9.5,15.98,9.5,28.45c0,12.43-3.2,21.99-9.5,28.4
			C895.75,176.61,886.33,179.86,874.06,179.86z M874.06,105.96c-11.64,0-20.51,3.02-26.38,8.99c-5.87,5.97-8.85,15-8.85,26.85
			c0,11.81,2.98,20.83,8.85,26.8c5.86,5.96,14.74,8.98,26.38,8.98c11.64,0,20.51-3.02,26.37-8.98c5.87-5.97,8.85-14.99,8.85-26.8
			c0-11.85-2.98-20.88-8.85-26.85C894.57,108.98,885.69,105.96,874.06,105.96z M874.06,161.77c-4.85,0-8.61-1.79-11.21-5.3
			c-2.51-3.41-3.78-8.35-3.78-14.68c0-6.35,1.27-11.32,3.78-14.77c2.59-3.55,6.36-5.36,11.21-5.36c4.84,0,8.61,1.8,11.21,5.36
			c2.51,3.44,3.78,8.41,3.78,14.77c0,6.32-1.27,11.26-3.78,14.68C882.67,159.99,878.9,161.77,874.06,161.77z M874.06,123.95
			c-4.13,0-7.2,1.44-9.37,4.42c-2.22,3.05-3.35,7.56-3.35,13.43c0,5.83,1.12,10.31,3.34,13.32c2.17,2.95,5.23,4.38,9.37,4.38
			c4.14,0,7.2-1.43,9.37-4.38c2.22-3.01,3.34-7.5,3.34-13.32c0-5.86-1.13-10.38-3.34-13.43
			C881.25,125.39,878.19,123.95,874.06,123.95z"/>
	</g>
	<g>
		<path class="st3" d="M917.47,141.79c0-12.21,3.06-21.43,9.17-27.65c6.11-6.22,15.18-9.33,27.19-9.33
			c12.01,0,21.07,3.11,27.19,9.33c6.11,6.22,9.17,15.43,9.17,27.65c0,12.18-3.06,21.38-9.17,27.6c-6.12,6.22-15.18,9.33-27.19,9.33
			c-12.01,0-21.07-3.11-27.19-9.33C920.53,163.17,917.47,153.98,917.47,141.79z M939.98,141.79c0,6.11,1.19,10.77,3.56,14
			c2.37,3.23,5.8,4.84,10.29,4.84c4.48,0,7.91-1.61,10.29-4.84c2.37-3.23,3.56-7.89,3.56-14c0-6.14-1.19-10.84-3.56-14.1
			c-2.38-3.26-5.81-4.89-10.29-4.89c-4.48,0-7.91,1.63-10.29,4.89C941.17,130.96,939.98,135.66,939.98,141.79z"/>
		<path class="st3" d="M953.83,179.86c-12.27,0-21.69-3.25-28-9.67c-6.3-6.41-9.5-15.96-9.5-28.4c0-12.47,3.2-22.04,9.5-28.45
			c6.31-6.41,15.73-9.67,28-9.67c12.27,0,21.69,3.25,28,9.67c6.3,6.41,9.5,15.98,9.5,28.45c0,12.43-3.2,21.99-9.5,28.4
			C975.52,176.61,966.1,179.86,953.83,179.86z M953.83,105.96c-11.64,0-20.51,3.02-26.38,8.99c-5.87,5.97-8.85,15-8.85,26.85
			c0,11.81,2.98,20.83,8.85,26.8c5.86,5.96,14.74,8.98,26.38,8.98c11.64,0,20.51-3.02,26.37-8.98c5.87-5.97,8.85-14.99,8.85-26.8
			c0-11.85-2.98-20.88-8.85-26.85C974.34,108.98,965.47,105.96,953.83,105.96z M953.83,161.77c-4.85,0-8.61-1.79-11.21-5.3
			c-2.51-3.41-3.78-8.35-3.78-14.68c0-6.35,1.27-11.32,3.78-14.77c2.59-3.55,6.36-5.36,11.21-5.36c4.84,0,8.61,1.8,11.21,5.36
			c2.51,3.44,3.78,8.41,3.78,14.77c0,6.32-1.27,11.26-3.78,14.68C962.44,159.99,958.68,161.77,953.83,161.77z M953.83,123.95
			c-4.13,0-7.2,1.44-9.37,4.42c-2.22,3.05-3.35,7.56-3.35,13.43c0,5.83,1.12,10.31,3.34,13.32c2.17,2.95,5.23,4.38,9.37,4.38
			c4.14,0,7.2-1.43,9.37-4.38c2.22-3.01,3.34-7.5,3.34-13.32c0-5.86-1.13-10.38-3.34-13.43
			C961.03,125.39,957.97,123.95,953.83,123.95z"/>
	</g>
	<g>
		<path class="st3" d="M1014.16,176.87v-52.4h-19.55v-17.8h60.11v17.8h-19.62v52.4H1014.16z"/>
		<path class="st3" d="M1036.24,178.01h-23.22v-52.4h-19.55v-20.08h62.39v20.08h-19.62V178.01z M1015.3,175.73h18.66v-52.4h19.62
			v-15.52h-57.84v15.52h19.55V175.73z"/>
	</g>
	<g>
		<path class="st3" d="M1064.93,176.87V75.4h44.9l13.21,61.81l14.26-61.81h44.27v101.46h-28.05V97.63l-18.59,79.24h-23.61
			l-18.38-79.24v79.24H1064.93z"/>
	</g>
	<g>
		<path class="st3" d="M1198.52,176.87v-74.58h60.84v18.31h-38.59v8.88h31.26v18.41h-31.26v9.78h40.5v19.21H1198.52z"/>
		<path class="st3" d="M1262.4,178.01h-65.02v-76.86h63.12v20.58h-38.59v6.6h31.26v20.68h-31.26v7.5h40.5V178.01z M1199.66,175.73
			h60.46v-16.93h-40.5v-12.06h31.26V130.6h-31.26v-11.15h38.59v-16.03h-58.56V175.73z"/>
	</g>
	<g>
		<path class="st3" d="M1269.92,176.87v-74.58h26.33l22.17,42.96v-42.96h21.55v74.58H1315l-24.11-43.67v43.67H1269.92z"/>
		<path class="st3" d="M1341.1,178.01h-26.78l-22.3-40.39v40.39h-23.25v-76.86h28.16l20.34,39.41v-39.41h23.83V178.01z
			 M1315.67,175.73h23.15v-72.3h-19.27v46.52l-24-46.52h-24.49v72.3h18.69v-46.95L1315.67,175.73z"/>
	</g>
	<g>
		<path class="st3" d="M1376.38,102.29v36.46c0,7.5,0.87,12.7,2.62,15.61c1.75,2.91,4.77,4.36,9.07,4.36c4.3,0,7.31-1.44,9.03-4.34
			c1.72-2.89,2.58-8.1,2.58-15.63v-36.46h22.29v39.18c0,12.94-2.71,22.42-8.13,28.44c-5.42,6.02-14.01,9.03-25.76,9.03
			c-11.68,0-20.25-3.03-25.72-9.08c-5.48-6.05-8.21-15.51-8.21-28.39v-39.18H1376.38z"/>
		<path class="st3" d="M1388.07,180.07c-11.95,0-20.89-3.18-26.57-9.45c-5.64-6.24-8.5-16.05-8.5-29.16v-40.32h24.53v37.6
			c0,7.25,0.83,12.31,2.46,15.02c1.54,2.56,4.19,3.81,8.09,3.81c3.9,0,6.53-1.24,8.05-3.78c1.61-2.71,2.42-7.77,2.42-15.05v-37.6
			h24.56v40.32c0,13.17-2.84,23-8.43,29.2C1409.06,176.91,1400.1,180.07,1388.07,180.07z M1355.28,103.42v38.04
			c0,12.53,2.66,21.82,7.92,27.63c5.22,5.78,13.59,8.7,24.88,8.7c11.36,0,19.74-2.91,24.92-8.65c5.2-5.78,7.84-15.09,7.84-27.68
			v-38.04h-20.01v35.32c0,7.81-0.9,13.11-2.74,16.21c-1.93,3.25-5.3,4.89-10.01,4.89c-4.7,0-8.09-1.65-10.04-4.91
			c-1.87-3.12-2.78-8.42-2.78-16.2v-35.32H1355.28z"/>
	</g>
</g>
</svg>
