<?xml version="1.0" encoding="utf-8"?>
<!-- Generator: Adobe Illustrator 25.4.1, SVG Export Plug-In . SVG Version: 6.00 Build 0)  -->
<svg version="1.1" id="Layer_1" xmlns="http://www.w3.org/2000/svg" xmlns:xlink="http://www.w3.org/1999/xlink" x="0px" y="0px"
	 viewBox="0 0 409.97 302.39" style="enable-background:new 0 0 409.97 302.39;" xml:space="preserve">
<style type="text/css">
	.st0{fill:#00B400;}
	.st1{fill:#00B7B9;}
	.st2{fill:#BA6900;}
	.st3{fill:#A4A5A5;}
</style>
<rect x="-1.56" y="-0.94" width="411.53" height="302.88"/>
<path d="M377.39,218.88H55.18c-10,0-18.1-8.1-18.1-18.1V52.02c0-10,8.1-18.1,18.1-18.1h304.11c10,0,18.1,8.1,18.1,18.1V218.88z"/>
<g>
	<path class="st0" d="M381.91,223.4H55.18c-12.47,0-22.62-10.15-22.62-22.62V52.02c0-12.47,10.15-22.62,22.62-22.62h304.11
		c12.47,0,22.62,10.15,22.62,22.62V223.4z M55.18,38.45c-7.48,0-13.57,6.09-13.57,13.57v148.76c0,7.48,6.09,13.57,13.57,13.57
		h317.69V52.02c0-7.48-6.09-13.57-13.57-13.57H55.18z"/>
	<path class="st1" d="M344.95,163.47H70.27c-7.32,0-13.25,5.93-13.25,13.25v0c0,7.32,5.93,13.25,13.25,13.25H358.2v-13.26
		C358.2,169.4,352.27,163.47,344.95,163.47z"/>
	<path class="st1" d="M344.96,112.98H70.26c-7.32,0-13.26,5.93-13.26,13.26v0c0,7.32,5.93,13.26,13.26,13.26h287.95v-13.26
		C358.21,118.91,352.28,112.98,344.96,112.98z"/>
	<path class="st1" d="M70.27,62.48h274.68c7.32,0,13.26,5.93,13.26,13.26v13.26H70.27c-7.32,0-13.26-5.93-13.26-13.26v0
		C57.01,68.42,62.95,62.48,70.27,62.48z"/>
</g>
<g>
	<path class="st2" d="M38.04,277v-7.7l15.67-18.31H38.96v-8.71h28.81v7.89l-15.58,17.7h15.06V277H38.04z"/>
	<path class="st2" d="M72.36,277v-34.72h26.68v8.52H82.72v4.72h13.34v8.55H82.72V277H72.36z"/>
	<path class="st2" d="M101.43,266.44l12.54-0.02c0.1,0.94,0.55,1.66,1.36,2.17c0.81,0.51,1.91,0.76,3.31,0.76
		c1.4,0,2.44-0.21,3.14-0.62c0.69-0.42,1.04-1.04,1.04-1.87c0-0.74-0.3-1.33-0.9-1.77c-0.6-0.45-1.53-0.77-2.78-0.97l-7.74-1.24
		c-3.21-0.5-5.62-1.62-7.24-3.36c-1.62-1.74-2.43-4.06-2.43-6.97c0-3.88,1.23-6.71,3.68-8.5c2.45-1.78,6.36-2.68,11.72-2.68
		c5.57,0,9.71,0.89,12.42,2.68c2.71,1.78,4.18,4.56,4.39,8.33h-12.04c-0.13-1.1-0.64-1.92-1.52-2.48c-0.88-0.56-2.11-0.83-3.71-0.83
		c-1.16,0-2.07,0.21-2.73,0.62c-0.66,0.42-0.99,0.97-0.99,1.68c0,0.66,0.26,1.16,0.77,1.5c0.51,0.34,1.58,0.66,3.19,0.96l9.44,1.74
		c2.95,0.55,5.16,1.66,6.62,3.34c1.46,1.68,2.19,3.95,2.19,6.8c0,4.26-1.46,7.38-4.37,9.37c-2.92,1.99-7.51,2.98-13.79,2.98
		c-4.99,0-8.82-1-11.49-3.01C102.82,273.05,101.46,270.18,101.43,266.44z"/>
	<g>
		<path class="st3" d="M161.58,242.28c3.74,0,6.38,0.67,7.93,2.01c1.55,1.34,2.32,3.56,2.32,6.66c0,1.71-0.3,3.2-0.9,4.48
			c-0.6,1.28-1.49,2.32-2.66,3.12c1.54,0.64,2.71,1.69,3.49,3.13c0.78,1.45,1.17,3.25,1.17,5.41c0,3.3-0.83,5.78-2.49,7.43
			c-1.66,1.65-4.16,2.48-7.5,2.48h-22.87v-34.72H161.58z M150.43,250.4v4.91h6.96c1.51,0,2.48-0.18,2.93-0.53
			c0.45-0.35,0.67-0.99,0.67-1.91c0-0.94-0.21-1.58-0.61-1.94c-0.41-0.35-1.4-0.53-2.98-0.53H150.43z M150.43,268.34h7.34
			c1.69,0,2.78-0.2,3.28-0.61s0.75-1.14,0.75-2.21c0-1.1-0.26-1.85-0.78-2.27c-0.52-0.41-1.6-0.62-3.25-0.62h-7.34V268.34z"/>
	</g>
	<g>
		<path class="st3" d="M176.11,265c0-4.18,1.05-7.33,3.14-9.46c2.09-2.13,5.19-3.19,9.3-3.19c4.11,0,7.21,1.06,9.3,3.19
			c2.09,2.13,3.14,5.28,3.14,9.46c0,4.17-1.05,7.32-3.14,9.44c-2.09,2.13-5.19,3.19-9.3,3.19c-4.11,0-7.21-1.06-9.3-3.19
			C177.15,272.31,176.11,269.17,176.11,265z M183.81,265c0,2.09,0.41,3.69,1.22,4.79c0.81,1.1,1.99,1.66,3.52,1.66
			c1.53,0,2.71-0.55,3.52-1.66c0.81-1.1,1.22-2.7,1.22-4.79c0-2.1-0.41-3.71-1.22-4.82c-0.81-1.11-1.99-1.67-3.52-1.67
			c-1.53,0-2.71,0.56-3.52,1.67C184.22,261.29,183.81,262.9,183.81,265z"/>
		<path class="st3" d="M188.55,278.02c-4.2,0-7.42-1.11-9.58-3.31c-2.16-2.19-3.25-5.46-3.25-9.72c0-4.27,1.09-7.54,3.25-9.73
			c2.16-2.19,5.38-3.31,9.58-3.31c4.2,0,7.42,1.11,9.58,3.31c2.16,2.19,3.25,5.47,3.25,9.73c0,4.26-1.09,7.52-3.25,9.72
			C195.97,276.91,192.75,278.02,188.55,278.02z M188.55,252.74c-3.98,0-7.02,1.03-9.03,3.08c-2.01,2.04-3.03,5.13-3.03,9.19
			c0,4.04,1.02,7.13,3.03,9.17c2.01,2.04,5.04,3.07,9.03,3.07c3.98,0,7.02-1.03,9.03-3.07c2.01-2.04,3.03-5.13,3.03-9.17
			c0-4.05-1.02-7.15-3.03-9.19C195.57,253.77,192.53,252.74,188.55,252.74z M188.55,271.84c-1.66,0-2.95-0.61-3.83-1.81
			c-0.86-1.17-1.3-2.86-1.3-5.02c0-2.17,0.44-3.87,1.29-5.05c0.89-1.22,2.18-1.83,3.84-1.83c1.66,0,2.95,0.62,3.83,1.83
			c0.86,1.18,1.29,2.88,1.29,5.05c0,2.16-0.44,3.85-1.29,5.02C191.5,271.22,190.21,271.84,188.55,271.84z M188.55,258.89
			c-1.41,0-2.46,0.49-3.21,1.51c-0.76,1.04-1.14,2.59-1.14,4.59c0,1.99,0.38,3.53,1.14,4.56c0.74,1.01,1.79,1.5,3.21,1.5
			c1.42,0,2.46-0.49,3.21-1.5c0.76-1.03,1.14-2.57,1.14-4.56c0-2.01-0.39-3.55-1.14-4.59C191.01,259.39,189.96,258.89,188.55,258.89
			z"/>
	</g>
	<g>
		<path class="st3" d="M203.41,265c0-4.18,1.05-7.33,3.14-9.46c2.09-2.13,5.19-3.19,9.3-3.19c4.11,0,7.21,1.06,9.3,3.19
			c2.09,2.13,3.14,5.28,3.14,9.46c0,4.17-1.05,7.32-3.14,9.44c-2.09,2.13-5.19,3.19-9.3,3.19c-4.11,0-7.21-1.06-9.3-3.19
			C204.45,272.31,203.41,269.17,203.41,265z M211.11,265c0,2.09,0.41,3.69,1.22,4.79c0.81,1.1,1.99,1.66,3.52,1.66
			c1.53,0,2.71-0.55,3.52-1.66c0.81-1.1,1.22-2.7,1.22-4.79c0-2.1-0.41-3.71-1.22-4.82c-0.81-1.11-1.99-1.67-3.52-1.67
			c-1.53,0-2.71,0.56-3.52,1.67C211.52,261.29,211.11,262.9,211.11,265z"/>
		<path class="st3" d="M215.85,278.02c-4.2,0-7.42-1.11-9.58-3.31c-2.16-2.19-3.25-5.46-3.25-9.72c0-4.27,1.09-7.54,3.25-9.73
			c2.16-2.19,5.38-3.31,9.58-3.31c4.2,0,7.42,1.11,9.58,3.31c2.16,2.19,3.25,5.47,3.25,9.73c0,4.26-1.09,7.52-3.25,9.72
			C223.27,276.91,220.05,278.02,215.85,278.02z M215.85,252.74c-3.98,0-7.02,1.03-9.03,3.08c-2.01,2.04-3.03,5.13-3.03,9.19
			c0,4.04,1.02,7.13,3.03,9.17c2.01,2.04,5.04,3.07,9.03,3.07c3.98,0,7.02-1.03,9.03-3.07c2.01-2.04,3.03-5.13,3.03-9.17
			c0-4.05-1.02-7.15-3.03-9.19C222.87,253.77,219.83,252.74,215.85,252.74z M215.85,271.84c-1.66,0-2.95-0.61-3.83-1.81
			c-0.86-1.17-1.3-2.86-1.3-5.02c0-2.17,0.44-3.87,1.29-5.05c0.89-1.22,2.18-1.83,3.84-1.83c1.66,0,2.95,0.62,3.83,1.83
			c0.86,1.18,1.29,2.88,1.29,5.05c0,2.16-0.44,3.85-1.29,5.02C218.8,271.22,217.51,271.84,215.85,271.84z M215.85,258.89
			c-1.41,0-2.46,0.49-3.21,1.51c-0.76,1.04-1.14,2.59-1.14,4.59c0,1.99,0.38,3.53,1.14,4.56c0.74,1.01,1.79,1.5,3.21,1.5
			c1.42,0,2.46-0.49,3.21-1.5c0.76-1.03,1.14-2.57,1.14-4.56c0-2.01-0.39-3.55-1.14-4.59C218.31,259.39,217.26,258.89,215.85,258.89
			z"/>
	</g>
	<g>
		<path class="st3" d="M236.5,277v-17.93h-6.69v-6.09h20.57v6.09h-6.72V277H236.5z"/>
		<path class="st3" d="M244.05,277.39h-7.94v-17.93h-6.69v-6.87h21.35v6.87h-6.72V277.39z M236.88,276.61h6.39v-17.93h6.72v-5.31
			h-19.79v5.31h6.69V276.61z"/>
	</g>
	<g>
		<path class="st3" d="M253.87,277v-34.72h15.36l4.52,21.15l4.88-21.15h15.15V277h-9.6v-27.11L277.82,277h-8.08l-6.29-27.11V277
			H253.87z"/>
	</g>
	<g>
		<path class="st3" d="M299.58,277v-25.52h20.82v6.26h-13.21v3.04h10.7v6.3h-10.7v3.35h13.86V277H299.58z"/>
		<path class="st3" d="M321.44,277.39h-22.25v-26.3h21.6v7.04h-13.21v2.26h10.7v7.08h-10.7v2.57h13.86V277.39z M299.97,276.61h20.69
			v-5.8H306.8v-4.13h10.7v-5.52h-10.7v-3.82h13.21v-5.48h-20.04V276.61z"/>
	</g>
	<g>
		<path class="st3" d="M324.01,277v-25.52h9.01l7.59,14.7v-14.7h7.37V277h-8.54l-8.25-14.94V277H324.01z"/>
		<path class="st3" d="M348.37,277.39h-9.16l-7.63-13.82v13.82h-7.96v-26.3h9.64l6.96,13.49v-13.49h8.15V277.39z M339.67,276.61
			h7.92v-24.74H341v15.92l-8.21-15.92h-8.38v24.74h6.4v-16.07L339.67,276.61z"/>
	</g>
	<g>
		<path class="st3" d="M360.45,251.48v12.48c0,2.57,0.3,4.35,0.9,5.34c0.6,0.99,1.63,1.49,3.1,1.49c1.47,0,2.5-0.49,3.09-1.48
			c0.59-0.99,0.88-2.77,0.88-5.35v-12.48h7.63v13.41c0,4.43-0.93,7.67-2.78,9.73c-1.86,2.06-4.79,3.09-8.82,3.09
			c-4,0-6.93-1.04-8.8-3.11c-1.87-2.07-2.81-5.31-2.81-9.72v-13.41H360.45z"/>
		<path class="st3" d="M364.45,278.1c-4.09,0-7.15-1.09-9.09-3.23c-1.93-2.13-2.91-5.49-2.91-9.98v-13.8h8.39v12.87
			c0,2.48,0.28,4.21,0.84,5.14c0.53,0.88,1.43,1.3,2.77,1.3c1.33,0,2.24-0.42,2.75-1.29c0.55-0.93,0.83-2.66,0.83-5.15v-12.87h8.41
			v13.8c0,4.51-0.97,7.87-2.88,9.99C371.63,277.01,368.56,278.1,364.45,278.1z M353.22,251.87v13.02c0,4.29,0.91,7.47,2.71,9.45
			c1.79,1.98,4.65,2.98,8.51,2.98c3.89,0,6.76-1,8.53-2.96c1.78-1.98,2.68-5.16,2.68-9.47v-13.02h-6.85v12.09
			c0,2.67-0.31,4.49-0.94,5.55c-0.66,1.11-1.81,1.67-3.42,1.67c-1.61,0-2.77-0.57-3.44-1.68c-0.64-1.07-0.95-2.88-0.95-5.54v-12.09
			H353.22z"/>
	</g>
</g>
</svg>
