<?xml version="1.0" encoding="utf-8"?>
<!-- Generator: Adobe Illustrator 25.4.1, SVG Export Plug-In . SVG Version: 6.00 Build 0)  -->
<svg version="1.1" id="Layer_1" xmlns="http://www.w3.org/2000/svg" xmlns:xlink="http://www.w3.org/1999/xlink" x="0px" y="0px"
	 viewBox="0 0 1381.97 194" style="enable-background:new 0 0 1381.97 194;" xml:space="preserve">
<style type="text/css">
	.st0{fill:#FFFFFF;}
</style>
<g>
	<path class="st0" d="M344.83,189.48H22.62c-10,0-18.1-8.1-18.1-18.1V22.62c0-10,8.1-18.1,18.1-18.1h304.11c10,0,18.1,8.1,18.1,18.1
		V189.48z"/>
	<g>
		<path class="st0" d="M349.35,194H22.62C10.15,194,0,183.85,0,171.38V22.62C0,10.15,10.15,0,22.62,0h304.11
			c12.47,0,22.62,10.15,22.62,22.62V194z M22.62,9.05c-7.48,0-13.57,6.09-13.57,13.57v148.76c0,7.48,6.09,13.57,13.57,13.57h317.69
			V22.62c0-7.48-6.09-13.57-13.57-13.57H22.62z"/>
		<path class="st0" d="M312.39,134.07H37.7c-7.32,0-13.25,5.93-13.25,13.25l0,0c0,7.32,5.93,13.25,13.25,13.25h287.94v-13.26
			C325.64,140,319.71,134.07,312.39,134.07z"/>
		<path class="st0" d="M312.39,83.58H37.7c-7.32,0-13.26,5.93-13.26,13.26l0,0c0,7.32,5.93,13.26,13.26,13.26h287.95V96.84
			C325.65,89.51,319.71,83.58,312.39,83.58z"/>
		<path class="st0" d="M37.71,33.08h274.68c7.32,0,13.26,5.93,13.26,13.26V59.6H37.71c-7.32,0-13.26-5.93-13.26-13.26l0,0
			C24.45,39.02,30.38,33.08,37.71,33.08z"/>
	</g>
	<g>
		<path class="st0" d="M393.08,147.47v-22.5l45.8-53.51h-43.1V46h84.2v23.05l-45.53,51.73h44v26.69H393.08z"/>
		<path class="st0" d="M493.39,147.47V46h77.97v24.9h-47.7v13.79h38.98v24.97h-38.98v37.8L493.39,147.47L493.39,147.47z"/>
		<path class="st0" d="M578.32,116.6l36.66-0.07c0.28,2.74,1.6,4.86,3.96,6.34s5.58,2.23,9.67,2.23c4.08,0,7.14-0.61,9.16-1.82
			c2.02-1.21,3.04-3.03,3.04-5.46c0-2.15-0.88-3.88-2.64-5.18c-1.76-1.31-4.47-2.25-8.13-2.85l-22.61-3.64
			c-9.37-1.46-16.42-4.73-21.16-9.81s-7.1-11.87-7.1-20.38c0-11.34,3.58-19.62,10.75-24.83s18.58-7.82,34.25-7.82
			c16.27,0,28.37,2.61,36.29,7.82s12.2,13.33,12.84,24.35h-35.18c-0.39-3.2-1.87-5.61-4.44-7.24c-2.57-1.62-6.18-2.44-10.83-2.44
			c-3.38,0-6.04,0.61-7.98,1.82s-2.91,2.85-2.91,4.91c0,1.92,0.75,3.38,2.25,4.39s4.6,1.94,9.32,2.81l27.57,5.08
			c8.63,1.6,15.07,4.86,19.33,9.77c4.26,4.92,6.39,11.54,6.39,19.86c0,12.44-4.26,21.56-12.78,27.37s-21.96,8.71-40.3,8.71
			c-14.58,0-25.77-2.93-33.57-8.78C582.38,135.92,578.43,127.53,578.32,116.6z"/>
		<g>
			<path class="st0" d="M754.11,46c10.92,0,18.64,1.96,23.16,5.87s6.79,10.39,6.79,19.45c0,4.98-0.88,9.35-2.64,13.1
				s-4.35,6.79-7.76,9.12c4.51,1.87,7.91,4.93,10.19,9.16c2.29,4.23,3.43,9.5,3.43,15.81c0,9.65-2.43,16.89-7.29,21.71
				c-4.86,4.83-12.17,7.24-21.92,7.24h-66.82V46H754.11z M721.52,69.74v14.34h20.34c4.4,0,7.25-0.51,8.56-1.54
				c1.3-1.03,1.95-2.89,1.95-5.59c0-2.74-0.6-4.63-1.8-5.66c-1.2-1.03-4.1-1.54-8.72-1.54L721.52,69.74L721.52,69.74z
				 M721.52,122.15h21.45c4.93,0,8.13-0.59,9.59-1.78s2.19-3.34,2.19-6.45c0-3.2-0.76-5.41-2.27-6.62
				c-1.51-1.21-4.68-1.82-9.51-1.82h-21.45V122.15z"/>
		</g>
		<g>
			<path class="st0" d="M796.56,112.39c0-12.21,3.06-21.43,9.17-27.65c6.12-6.22,15.18-9.33,27.19-9.33s21.07,3.11,27.19,9.33
				c6.11,6.22,9.17,15.43,9.17,27.65c0,12.18-3.06,21.38-9.17,27.6c-6.12,6.22-15.18,9.33-27.19,9.33s-21.07-3.11-27.19-9.33
				S796.56,124.58,796.56,112.39z M819.07,112.39c0,6.11,1.19,10.77,3.56,14c2.37,3.23,5.8,4.84,10.29,4.84
				c4.48,0,7.91-1.61,10.29-4.84c2.37-3.23,3.56-7.89,3.56-14c0-6.14-1.19-10.84-3.56-14.1c-2.38-3.26-5.81-4.89-10.29-4.89
				s-7.91,1.63-10.29,4.89C820.25,101.56,819.07,106.26,819.07,112.39z"/>
			<path class="st0" d="M832.92,150.46c-12.27,0-21.69-3.25-28-9.67c-6.3-6.41-9.5-15.96-9.5-28.4c0-12.47,3.2-22.04,9.5-28.45
				c6.31-6.41,15.73-9.67,28-9.67s21.69,3.25,28,9.67c6.3,6.41,9.5,15.98,9.5,28.45c0,12.43-3.2,21.99-9.5,28.4
				C854.61,147.21,845.19,150.46,832.92,150.46z M832.92,76.56c-11.64,0-20.51,3.02-26.38,8.99s-8.85,15-8.85,26.85
				c0,11.81,2.98,20.83,8.85,26.8c5.86,5.96,14.74,8.98,26.38,8.98s20.51-3.02,26.37-8.98c5.87-5.97,8.85-14.99,8.85-26.8
				c0-11.85-2.98-20.88-8.85-26.85C853.43,79.58,844.55,76.56,832.92,76.56z M832.92,132.37c-4.85,0-8.61-1.79-11.21-5.3
				c-2.51-3.41-3.78-8.35-3.78-14.68c0-6.35,1.27-11.32,3.78-14.77c2.59-3.55,6.36-5.36,11.21-5.36c4.84,0,8.61,1.8,11.21,5.36
				c2.51,3.44,3.78,8.41,3.78,14.77c0,6.32-1.27,11.26-3.78,14.68C841.53,130.59,837.76,132.37,832.92,132.37z M832.92,94.55
				c-4.13,0-7.2,1.44-9.37,4.42c-2.22,3.05-3.35,7.56-3.35,13.43c0,5.83,1.12,10.31,3.34,13.32c2.17,2.95,5.23,4.38,9.37,4.38
				s7.2-1.43,9.37-4.38c2.22-3.01,3.34-7.5,3.34-13.32c0-5.86-1.13-10.38-3.34-13.43C840.11,95.99,837.05,94.55,832.92,94.55z"/>
		</g>
		<g>
			<path class="st0" d="M876.33,112.39c0-12.21,3.06-21.43,9.17-27.65s15.18-9.33,27.19-9.33s21.07,3.11,27.19,9.33
				c6.11,6.22,9.17,15.43,9.17,27.65c0,12.18-3.06,21.38-9.17,27.6c-6.12,6.22-15.18,9.33-27.19,9.33s-21.07-3.11-27.19-9.33
				C879.39,133.77,876.33,124.58,876.33,112.39z M898.84,112.39c0,6.11,1.19,10.77,3.56,14c2.37,3.23,5.8,4.84,10.29,4.84
				c4.48,0,7.91-1.61,10.29-4.84c2.37-3.23,3.56-7.89,3.56-14c0-6.14-1.19-10.84-3.56-14.1c-2.38-3.26-5.81-4.89-10.29-4.89
				s-7.91,1.63-10.29,4.89C900.03,101.56,898.84,106.26,898.84,112.39z"/>
			<path class="st0" d="M912.69,150.46c-12.27,0-21.69-3.25-28-9.67c-6.3-6.41-9.5-15.96-9.5-28.4c0-12.47,3.2-22.04,9.5-28.45
				c6.31-6.41,15.73-9.67,28-9.67s21.69,3.25,28,9.67c6.3,6.41,9.5,15.98,9.5,28.45c0,12.43-3.2,21.99-9.5,28.4
				C934.38,147.21,924.96,150.46,912.69,150.46z M912.69,76.56c-11.64,0-20.51,3.02-26.38,8.99s-8.85,15-8.85,26.85
				c0,11.81,2.98,20.83,8.85,26.8c5.86,5.96,14.74,8.98,26.38,8.98s20.51-3.02,26.37-8.98c5.87-5.97,8.85-14.99,8.85-26.8
				c0-11.85-2.98-20.88-8.85-26.85C933.2,79.58,924.33,76.56,912.69,76.56z M912.69,132.37c-4.85,0-8.61-1.79-11.21-5.3
				c-2.51-3.41-3.78-8.35-3.78-14.68c0-6.35,1.27-11.32,3.78-14.77c2.59-3.55,6.36-5.36,11.21-5.36c4.84,0,8.61,1.8,11.21,5.36
				c2.51,3.44,3.78,8.41,3.78,14.77c0,6.32-1.27,11.26-3.78,14.68C921.3,130.59,917.54,132.37,912.69,132.37z M912.69,94.55
				c-4.13,0-7.2,1.44-9.37,4.42c-2.22,3.05-3.35,7.56-3.35,13.43c0,5.83,1.12,10.31,3.34,13.32c2.17,2.95,5.23,4.38,9.37,4.38
				s7.2-1.43,9.37-4.38c2.22-3.01,3.34-7.5,3.34-13.32c0-5.86-1.13-10.38-3.34-13.43C919.89,95.99,916.83,94.55,912.69,94.55z"/>
		</g>
		<g>
			<path class="st0" d="M973.02,147.47v-52.4h-19.55v-17.8h60.11v17.8h-19.62v52.4H973.02z"/>
			<path class="st0" d="M995.1,148.61h-23.22v-52.4h-19.55V76.13h62.39v20.08H995.1V148.61z M974.16,146.33h18.66v-52.4h19.62V78.41
				H954.6v15.52h19.55v52.4H974.16z"/>
		</g>
		<g>
			<path class="st0" d="M1023.79,147.47V46h44.9l13.21,61.81L1096.16,46h44.27v101.46h-28.05V68.23l-18.59,79.24h-23.61
				l-18.38-79.24v79.24H1023.79z"/>
		</g>
		<g>
			<path class="st0" d="M1157.38,147.47V72.89h60.84V91.2h-38.59v8.88h31.26v18.41h-31.26v9.78h40.5v19.21h-62.75V147.47z"/>
			<path class="st0" d="M1221.26,148.61h-65.02V71.75h63.12v20.58h-38.59v6.6h31.26v20.68h-31.26v7.5h40.5v21.5H1221.26z
				 M1158.52,146.33h60.46V129.4h-40.5v-12.06h31.26V101.2h-31.26V90.05h38.59V74.02h-58.56v72.31H1158.52z"/>
		</g>
		<g>
			<path class="st0" d="M1228.78,147.47V72.89h26.33l22.17,42.96V72.89h21.55v74.58h-24.97l-24.11-43.67v43.67H1228.78z"/>
			<path class="st0" d="M1299.96,148.61h-26.78l-22.3-40.39v40.39h-23.25V71.75h28.16l20.34,39.41V71.75h23.83L1299.96,148.61
				L1299.96,148.61z M1274.53,146.33h23.15v-72.3h-19.27v46.52l-24-46.52h-24.49v72.3h18.69V99.38L1274.53,146.33z"/>
		</g>
		<g>
			<path class="st0" d="M1335.24,72.89v36.46c0,7.5,0.87,12.7,2.62,15.61s4.77,4.36,9.07,4.36c4.3,0,7.31-1.44,9.03-4.34
				c1.72-2.89,2.58-8.1,2.58-15.63V72.89h22.29v39.18c0,12.94-2.71,22.42-8.13,28.44s-14.01,9.03-25.76,9.03
				c-11.68,0-20.25-3.03-25.72-9.08c-5.48-6.05-8.21-15.51-8.21-28.39V72.89H1335.24z"/>
			<path class="st0" d="M1346.93,150.67c-11.95,0-20.89-3.18-26.57-9.45c-5.64-6.24-8.5-16.05-8.5-29.16V71.74h24.53v37.6
				c0,7.25,0.83,12.31,2.46,15.02c1.54,2.56,4.19,3.81,8.09,3.81s6.53-1.24,8.05-3.78c1.61-2.71,2.42-7.77,2.42-15.05v-37.6h24.56
				v40.32c0,13.17-2.84,23-8.43,29.2C1367.92,147.51,1358.96,150.67,1346.93,150.67z M1314.14,74.02v38.04
				c0,12.53,2.66,21.82,7.92,27.63c5.22,5.78,13.59,8.7,24.88,8.7c11.36,0,19.74-2.91,24.92-8.65c5.2-5.78,7.84-15.09,7.84-27.68
				V74.02h-20.01v35.32c0,7.81-0.9,13.11-2.74,16.21c-1.93,3.25-5.3,4.89-10.01,4.89c-4.7,0-8.09-1.65-10.04-4.91
				c-1.87-3.12-2.78-8.42-2.78-16.2V74.01h-19.98V74.02z"/>
		</g>
	</g>
</g>
</svg>
