<?xml version="1.0" encoding="utf-8"?>
<!-- Generator: Adobe Illustrator 25.4.1, SVG Export Plug-In . SVG Version: 6.00 Build 0)  -->
<svg version="1.1" id="Layer_1" xmlns="http://www.w3.org/2000/svg" xmlns:xlink="http://www.w3.org/1999/xlink" x="0px" y="0px"
	 viewBox="0 0 349.36 248.7" style="enable-background:new 0 0 349.36 248.7;" xml:space="preserve">
<style type="text/css">
	.st0{fill:#00B400;}
	.st1{fill:#00B7B9;}
	.st2{fill:#BA6900;}
	.st3{fill:#A4A5A5;}
</style>
<g>
	<path d="M344.83,189.48H22.62c-10,0-18.1-8.1-18.1-18.1V22.62c0-10,8.1-18.1,18.1-18.1h304.11c10,0,18.1,8.1,18.1,18.1V189.48z"/>
	<g>
		<path class="st0" d="M349.36,194H22.62C10.15,194,0,183.85,0,171.38V22.62C0,10.15,10.15,0,22.62,0h304.11
			c12.47,0,22.62,10.15,22.62,22.62V194z M22.62,9.05c-7.48,0-13.57,6.09-13.57,13.57v148.76c0,7.48,6.09,13.57,13.57,13.57h317.69
			V22.62c0-7.48-6.09-13.57-13.57-13.57H22.62z"/>
		<path class="st1" d="M312.39,134.07H37.71c-7.32,0-13.25,5.93-13.25,13.25v0c0,7.32,5.93,13.25,13.25,13.25h287.94v-13.26
			C325.65,140,319.71,134.07,312.39,134.07z"/>
		<path class="st1" d="M312.4,83.58H37.7c-7.32,0-13.26,5.93-13.26,13.26v0c0,7.32,5.93,13.26,13.26,13.26h287.95V96.83
			C325.65,89.51,319.72,83.58,312.4,83.58z"/>
		<path class="st1" d="M37.71,33.08h274.68c7.32,0,13.26,5.93,13.26,13.26v13.26H37.71c-7.32,0-13.26-5.93-13.26-13.26v0
			C24.46,39.02,30.39,33.08,37.71,33.08z"/>
	</g>
	<g>
		<path class="st2" d="M5.48,247.6v-7.7l15.67-18.31H6.4v-8.71h28.81v7.89l-15.58,17.7h15.06v9.13H5.48z"/>
		<path class="st2" d="M39.81,247.6v-34.72h26.68v8.52H50.16v4.72H63.5v8.55H50.16v12.94H39.81z"/>
		<path class="st2" d="M68.87,237.04l12.54-0.02c0.1,0.94,0.55,1.66,1.36,2.17c0.81,0.51,1.91,0.76,3.31,0.76
			c1.4,0,2.44-0.21,3.14-0.62c0.69-0.42,1.04-1.04,1.04-1.87c0-0.74-0.3-1.33-0.9-1.77c-0.6-0.45-1.53-0.77-2.78-0.97l-7.74-1.24
			c-3.21-0.5-5.62-1.62-7.24-3.36c-1.62-1.74-2.43-4.06-2.43-6.97c0-3.88,1.23-6.71,3.68-8.5c2.45-1.78,6.36-2.68,11.72-2.68
			c5.57,0,9.71,0.89,12.42,2.68c2.71,1.78,4.18,4.56,4.39,8.33H89.33c-0.13-1.1-0.64-1.92-1.52-2.48c-0.88-0.56-2.11-0.83-3.71-0.83
			c-1.16,0-2.07,0.21-2.73,0.62c-0.66,0.42-0.99,0.97-0.99,1.68c0,0.66,0.26,1.16,0.77,1.5c0.51,0.34,1.58,0.66,3.19,0.96l9.44,1.74
			c2.95,0.55,5.16,1.66,6.62,3.34c1.46,1.68,2.19,3.95,2.19,6.8c0,4.26-1.46,7.38-4.37,9.37c-2.92,1.99-7.51,2.98-13.79,2.98
			c-4.99,0-8.82-1-11.49-3.01C70.26,243.65,68.91,240.78,68.87,237.04z"/>
		<g>
			<path class="st3" d="M129.03,212.88c3.74,0,6.38,0.67,7.93,2.01c1.55,1.34,2.32,3.56,2.32,6.66c0,1.71-0.3,3.2-0.9,4.48
				s-1.49,2.32-2.66,3.12c1.54,0.64,2.71,1.69,3.49,3.13c0.78,1.45,1.17,3.25,1.17,5.41c0,3.3-0.83,5.78-2.49,7.43
				c-1.66,1.65-4.16,2.48-7.5,2.48h-22.87v-34.72H129.03z M117.87,221v4.91h6.96c1.51,0,2.48-0.18,2.93-0.53
				c0.45-0.35,0.67-0.99,0.67-1.91c0-0.94-0.21-1.58-0.61-1.94c-0.41-0.35-1.4-0.53-2.98-0.53H117.87z M117.87,238.94h7.34
				c1.69,0,2.78-0.2,3.28-0.61s0.75-1.14,0.75-2.21c0-1.1-0.26-1.85-0.78-2.27c-0.52-0.41-1.6-0.62-3.25-0.62h-7.34V238.94z"/>
		</g>
		<g>
			<path class="st3" d="M143.55,235.6c0-4.18,1.05-7.33,3.14-9.46c2.09-2.13,5.19-3.19,9.3-3.19c4.11,0,7.21,1.06,9.3,3.19
				s3.14,5.28,3.14,9.46c0,4.17-1.05,7.32-3.14,9.44s-5.19,3.19-9.3,3.19c-4.11,0-7.21-1.06-9.3-3.19
				C144.6,242.91,143.55,239.77,143.55,235.6z M151.25,235.6c0,2.09,0.41,3.69,1.22,4.79c0.81,1.1,1.99,1.66,3.52,1.66
				c1.53,0,2.71-0.55,3.52-1.66c0.81-1.1,1.22-2.7,1.22-4.79c0-2.1-0.41-3.71-1.22-4.82c-0.81-1.11-1.99-1.67-3.52-1.67
				c-1.53,0-2.71,0.56-3.52,1.67C151.66,231.89,151.25,233.5,151.25,235.6z"/>
			<path class="st3" d="M155.99,248.62c-4.2,0-7.42-1.11-9.58-3.31c-2.16-2.19-3.25-5.46-3.25-9.72c0-4.27,1.09-7.54,3.25-9.73
				c2.16-2.19,5.38-3.31,9.58-3.31c4.2,0,7.42,1.11,9.58,3.31c2.16,2.19,3.25,5.47,3.25,9.73c0,4.26-1.09,7.52-3.25,9.72
				C163.42,247.51,160.19,248.62,155.99,248.62z M155.99,223.34c-3.98,0-7.02,1.03-9.03,3.08c-2.01,2.04-3.03,5.13-3.03,9.19
				c0,4.04,1.02,7.13,3.03,9.17c2.01,2.04,5.04,3.07,9.03,3.07c3.98,0,7.02-1.03,9.03-3.07c2.01-2.04,3.03-5.13,3.03-9.17
				c0-4.05-1.02-7.15-3.03-9.19C163.01,224.37,159.98,223.34,155.99,223.34z M155.99,242.44c-1.66,0-2.95-0.61-3.83-1.81
				c-0.86-1.17-1.3-2.86-1.3-5.02c0-2.17,0.44-3.87,1.29-5.05c0.89-1.22,2.18-1.83,3.84-1.83c1.66,0,2.95,0.62,3.83,1.83
				c0.86,1.18,1.29,2.88,1.29,5.05c0,2.16-0.44,3.85-1.29,5.02C158.94,241.82,157.65,242.44,155.99,242.44z M155.99,229.49
				c-1.41,0-2.46,0.49-3.21,1.51c-0.76,1.04-1.15,2.59-1.15,4.59c0,1.99,0.38,3.53,1.14,4.56c0.74,1.01,1.79,1.5,3.21,1.5
				c1.42,0,2.46-0.49,3.21-1.5c0.76-1.03,1.14-2.57,1.14-4.56c0-2.01-0.39-3.55-1.14-4.59
				C158.46,229.99,157.41,229.49,155.99,229.49z"/>
		</g>
		<g>
			<path class="st3" d="M170.85,235.6c0-4.18,1.05-7.33,3.14-9.46c2.09-2.13,5.19-3.19,9.3-3.19c4.11,0,7.21,1.06,9.3,3.19
				s3.14,5.28,3.14,9.46c0,4.17-1.05,7.32-3.14,9.44s-5.19,3.19-9.3,3.19c-4.11,0-7.21-1.06-9.3-3.19
				C171.9,242.91,170.85,239.77,170.85,235.6z M178.55,235.6c0,2.09,0.41,3.69,1.22,4.79c0.81,1.1,1.99,1.66,3.52,1.66
				c1.53,0,2.71-0.55,3.52-1.66c0.81-1.1,1.22-2.7,1.22-4.79c0-2.1-0.41-3.71-1.22-4.82c-0.81-1.11-1.99-1.67-3.52-1.67
				c-1.53,0-2.71,0.56-3.52,1.67C178.96,231.89,178.55,233.5,178.55,235.6z"/>
			<path class="st3" d="M183.29,248.62c-4.2,0-7.42-1.11-9.58-3.31c-2.16-2.19-3.25-5.46-3.25-9.72c0-4.27,1.09-7.54,3.25-9.73
				c2.16-2.19,5.38-3.31,9.58-3.31c4.2,0,7.42,1.11,9.58,3.31c2.16,2.19,3.25,5.47,3.25,9.73c0,4.26-1.09,7.52-3.25,9.72
				C190.72,247.51,187.49,248.62,183.29,248.62z M183.29,223.34c-3.98,0-7.02,1.03-9.03,3.08c-2.01,2.04-3.03,5.13-3.03,9.19
				c0,4.04,1.02,7.13,3.03,9.17c2.01,2.04,5.04,3.07,9.03,3.07c3.98,0,7.02-1.03,9.03-3.07c2.01-2.04,3.03-5.13,3.03-9.17
				c0-4.05-1.02-7.15-3.03-9.19C190.31,224.37,187.27,223.34,183.29,223.34z M183.29,242.44c-1.66,0-2.95-0.61-3.83-1.81
				c-0.86-1.17-1.3-2.86-1.3-5.02c0-2.17,0.44-3.87,1.29-5.05c0.89-1.22,2.18-1.83,3.84-1.83c1.66,0,2.95,0.62,3.83,1.83
				c0.86,1.18,1.29,2.88,1.29,5.05c0,2.16-0.44,3.85-1.29,5.02C186.24,241.82,184.95,242.44,183.29,242.44z M183.29,229.49
				c-1.41,0-2.46,0.49-3.21,1.51c-0.76,1.04-1.15,2.59-1.15,4.59c0,1.99,0.38,3.53,1.14,4.56c0.74,1.01,1.79,1.5,3.21,1.5
				c1.42,0,2.46-0.49,3.21-1.5c0.76-1.03,1.14-2.57,1.14-4.56c0-2.01-0.39-3.55-1.14-4.59
				C185.76,229.99,184.71,229.49,183.29,229.49z"/>
		</g>
		<g>
			<path class="st3" d="M203.94,247.6v-17.93h-6.69v-6.09h20.57v6.09h-6.72v17.93H203.94z"/>
			<path class="st3" d="M211.49,247.99h-7.94v-17.93h-6.69v-6.87h21.35v6.87h-6.72V247.99z M204.33,247.21h6.39v-17.93h6.72v-5.31
				h-19.79v5.31h6.69V247.21z"/>
		</g>
		<g>
			<path class="st3" d="M221.31,247.6v-34.72h15.36l4.52,21.15l4.88-21.15h15.15v34.72h-9.6v-27.11l-6.36,27.11h-8.08l-6.29-27.11
				v27.11H221.31z"/>
		</g>
		<g>
			<path class="st3" d="M267.03,247.6v-25.52h20.82v6.26h-13.21v3.04h10.7v6.3h-10.7v3.35h13.86v6.57H267.03z"/>
			<path class="st3" d="M288.89,247.99h-22.25v-26.3h21.6v7.04h-13.21v2.26h10.7v7.08h-10.7v2.57h13.86V247.99z M267.41,247.21
				h20.69v-5.8h-13.86v-4.13h10.7v-5.52h-10.7v-3.82h13.21v-5.48h-20.04V247.21z"/>
		</g>
		<g>
			<path class="st3" d="M291.46,247.6v-25.52h9.01l7.59,14.7v-14.7h7.37v25.52h-8.54l-8.25-14.94v14.94H291.46z"/>
			<path class="st3" d="M315.82,247.99h-9.16l-7.63-13.82v13.82h-7.96v-26.3h9.64l6.96,13.49v-13.49h8.15V247.99z M307.11,247.21
				h7.92v-24.74h-6.59v15.92l-8.21-15.92h-8.38v24.74h6.4v-16.07L307.11,247.21z"/>
		</g>
		<g>
			<path class="st3" d="M327.89,222.08v12.48c0,2.57,0.3,4.35,0.9,5.34c0.6,0.99,1.63,1.49,3.1,1.49c1.47,0,2.5-0.49,3.09-1.48
				c0.59-0.99,0.88-2.77,0.88-5.35v-12.48h7.63v13.41c0,4.43-0.93,7.67-2.78,9.73s-4.79,3.09-8.82,3.09c-4,0-6.93-1.04-8.8-3.11
				c-1.87-2.07-2.81-5.31-2.81-9.72v-13.41H327.89z"/>
			<path class="st3" d="M331.89,248.7c-4.09,0-7.15-1.09-9.09-3.23c-1.93-2.13-2.91-5.49-2.91-9.98v-13.8h8.39v12.87
				c0,2.48,0.28,4.21,0.84,5.14c0.53,0.88,1.43,1.3,2.77,1.3c1.33,0,2.24-0.42,2.75-1.29c0.55-0.93,0.83-2.66,0.83-5.15v-12.87h8.41
				v13.8c0,4.51-0.97,7.87-2.88,9.99C339.07,247.61,336.01,248.7,331.89,248.7z M320.67,222.47v13.02c0,4.29,0.91,7.47,2.71,9.45
				c1.79,1.98,4.65,2.98,8.51,2.98c3.89,0,6.76-1,8.53-2.96c1.78-1.98,2.68-5.16,2.68-9.47v-13.02h-6.85v12.09
				c0,2.67-0.31,4.49-0.94,5.55c-0.66,1.11-1.81,1.67-3.42,1.67c-1.61,0-2.77-0.57-3.44-1.68c-0.64-1.07-0.95-2.88-0.95-5.54v-12.09
				H320.67z"/>
		</g>
	</g>
</g>
</svg>
