<?xml version="1.0" encoding="utf-8"?>
<!-- Generator: Adobe Illustrator 25.4.1, SVG Export Plug-In . SVG Version: 6.00 Build 0)  -->
<svg version="1.1" id="Layer_1" xmlns="http://www.w3.org/2000/svg" xmlns:xlink="http://www.w3.org/1999/xlink" x="0px" y="0px"
	 viewBox="0 0 349.36 194" style="enable-background:new 0 0 349.36 194;" xml:space="preserve">
<g>
	<g>
		<path d="M349.36,194H22.62C10.15,194,0,183.85,0,171.38V22.62C0,10.15,10.15,0,22.62,0h304.11c12.47,0,22.62,10.15,22.62,22.62
			V194z M22.62,9.05c-7.48,0-13.57,6.09-13.57,13.57v148.76c0,7.48,6.09,13.57,13.57,13.57h317.69V22.62
			c0-7.48-6.09-13.57-13.57-13.57H22.62z"/>
		<path d="M312.39,134.07H37.71c-7.32,0-13.25,5.93-13.25,13.25v0c0,7.32,5.93,13.25,13.25,13.25h287.94v-13.26
			C325.65,140,319.71,134.07,312.39,134.07z"/>
		<path d="M312.4,83.58H37.7c-7.32,0-13.26,5.93-13.26,13.26v0c0,7.32,5.93,13.26,13.26,13.26h287.95V96.83
			C325.65,89.51,319.72,83.58,312.4,83.58z"/>
		<path d="M37.71,33.08h274.68c7.32,0,13.26,5.93,13.26,13.26v13.26H37.71c-7.32,0-13.26-5.93-13.26-13.26v0
			C24.46,39.02,30.39,33.08,37.71,33.08z"/>
	</g>
</g>
</svg>
